<mxfile host="Electron" modified="2024-11-13T17:15:31.174Z" agent="Mozilla/5.0 (Macintosh; Intel Mac OS X 10_15_7) AppleWebKit/537.36 (KHTML, like Gecko) draw.io/24.2.5 Chrome/120.0.6099.109 Electron/28.1.0 Safari/537.36" etag="kZDPExYaBQvupxm3ib5-" version="24.2.5" type="device">
  <diagram name="Page-1" id="YLdsh_WctxPBKMCPLCpj">
    <mxGraphModel dx="1462" dy="454" grid="1" gridSize="7" guides="1" tooltips="1" connect="1" arrows="1" fold="1" page="1" pageScale="1" pageWidth="827" pageHeight="1169" math="0" shadow="0">
      <root>
        <mxCell id="0" />
        <mxCell id="1" parent="0" />
        <mxCell id="vvrQFcxBnv0l4eagiuI2-2" value="MOD_EXP" style="rounded=0;whiteSpace=wrap;html=1;" vertex="1" parent="1">
          <mxGeometry x="259" y="294" width="154" height="175" as="geometry" />
        </mxCell>
        <mxCell id="vvrQFcxBnv0l4eagiuI2-3" value="&lt;div style=&quot;font-size: 11px;&quot;&gt;&lt;font style=&quot;font-size: 11px;&quot;&gt;&lt;br&gt;&lt;/font&gt;&lt;/div&gt;&lt;div style=&quot;font-size: 11px;&quot;&gt;&lt;font style=&quot;font-size: 11px;&quot;&gt;&lt;br&gt;&lt;/font&gt;&lt;/div&gt;&lt;div style=&quot;font-size: 11px;&quot;&gt;&lt;font style=&quot;font-size: 11px;&quot;&gt;message&lt;/font&gt;&lt;/div&gt;&lt;div style=&quot;font-size: 11px;&quot;&gt;&lt;font style=&quot;font-size: 11px;&quot;&gt;key&lt;/font&gt;&lt;/div&gt;&lt;div style=&quot;font-size: 11px;&quot;&gt;&lt;font style=&quot;font-size: 11px;&quot;&gt;modulus&lt;/font&gt;&lt;/div&gt;&lt;div style=&quot;font-size: 11px;&quot;&gt;&lt;font style=&quot;font-size: 11px;&quot;&gt;&lt;br&gt;&lt;/font&gt;&lt;/div&gt;&lt;div style=&quot;font-size: 11px;&quot;&gt;&lt;font style=&quot;font-size: 11px;&quot;&gt;base_&lt;/font&gt;&lt;/div&gt;&lt;div style=&quot;font-size: 11px;&quot;&gt;&lt;font style=&quot;font-size: 11px;&quot;&gt;squared&lt;/font&gt;&lt;/div&gt;&lt;div style=&quot;font-size: 11px;&quot;&gt;&lt;font style=&quot;font-size: 11px;&quot;&gt;&lt;br&gt;&lt;/font&gt;&lt;/div&gt;&lt;div style=&quot;font-size: 11px;&quot;&gt;&lt;font style=&quot;font-size: 11px;&quot;&gt;clk&lt;/font&gt;&lt;/div&gt;&lt;div style=&quot;font-size: 11px;&quot;&gt;&lt;font style=&quot;font-size: 11px;&quot;&gt;&lt;br&gt;&lt;/font&gt;&lt;/div&gt;&lt;div style=&quot;font-size: 11px;&quot;&gt;&lt;font style=&quot;text-align: right;&quot;&gt;multip&lt;/font&gt;&lt;font style=&quot;text-align: right; font-size: 10px;&quot;&gt;-&lt;/font&gt;&lt;div style=&quot;font-size: 12px; text-align: right;&quot;&gt;&lt;font style=&quot;font-size: 11px;&quot;&gt;lication_done&lt;/font&gt;&lt;/div&gt;&lt;div style=&quot;font-size: 12px;&quot;&gt;&lt;span style=&quot;background-color: initial; font-size: 11px;&quot;&gt;result&lt;/span&gt;&lt;br&gt;&lt;/div&gt;&lt;/div&gt;&lt;div style=&quot;font-size: 11px;&quot;&gt;&lt;font style=&quot;font-size: 11px;&quot;&gt;&lt;br&gt;&lt;/font&gt;&lt;/div&gt;&lt;div style=&quot;font-size: 11px;&quot;&gt;&lt;br&gt;&lt;/div&gt;" style="text;html=1;align=left;verticalAlign=middle;whiteSpace=wrap;rounded=0;" vertex="1" parent="1">
          <mxGeometry x="259" y="273" width="56" height="210" as="geometry" />
        </mxCell>
        <mxCell id="vvrQFcxBnv0l4eagiuI2-10" value="" style="ellipse;whiteSpace=wrap;html=1;rounded=0;align=center;verticalAlign=middle;fontFamily=Helvetica;fontSize=12;fontColor=default;fillColor=#000000;gradientColor=none;fontStyle=1" vertex="1" parent="1">
          <mxGeometry x="257" y="304" width="3" height="3" as="geometry" />
        </mxCell>
        <mxCell id="vvrQFcxBnv0l4eagiuI2-11" value="" style="ellipse;whiteSpace=wrap;html=1;rounded=0;align=center;verticalAlign=middle;fontFamily=Helvetica;fontSize=12;fontColor=default;fillColor=#000000;gradientColor=none;" vertex="1" parent="1">
          <mxGeometry x="257" y="317" width="3" height="3" as="geometry" />
        </mxCell>
        <mxCell id="vvrQFcxBnv0l4eagiuI2-12" value="" style="ellipse;whiteSpace=wrap;html=1;rounded=0;align=center;verticalAlign=middle;fontFamily=Helvetica;fontSize=12;fontColor=default;fillColor=#000000;gradientColor=none;" vertex="1" parent="1">
          <mxGeometry x="257" y="331" width="3" height="3" as="geometry" />
        </mxCell>
        <mxCell id="vvrQFcxBnv0l4eagiuI2-13" value="" style="ellipse;whiteSpace=wrap;html=1;rounded=0;align=center;verticalAlign=middle;fontFamily=Helvetica;fontSize=12;fontColor=default;fillColor=#000000;gradientColor=none;" vertex="1" parent="1">
          <mxGeometry x="257" y="361" width="3" height="3" as="geometry" />
        </mxCell>
        <mxCell id="vvrQFcxBnv0l4eagiuI2-14" value="" style="ellipse;whiteSpace=wrap;html=1;rounded=0;align=center;verticalAlign=middle;fontFamily=Helvetica;fontSize=12;fontColor=default;fillColor=#000000;gradientColor=none;" vertex="1" parent="1">
          <mxGeometry x="257" y="396" width="3" height="3" as="geometry" />
        </mxCell>
        <mxCell id="vvrQFcxBnv0l4eagiuI2-16" value="" style="ellipse;whiteSpace=wrap;html=1;rounded=0;align=center;verticalAlign=middle;fontFamily=Helvetica;fontSize=12;fontColor=default;fillColor=#000000;gradientColor=none;" vertex="1" parent="1">
          <mxGeometry x="257" y="452" width="3" height="3" as="geometry" />
        </mxCell>
        <mxCell id="vvrQFcxBnv0l4eagiuI2-17" value="" style="ellipse;whiteSpace=wrap;html=1;rounded=0;align=center;verticalAlign=middle;fontFamily=Helvetica;fontSize=12;fontColor=default;fillColor=#000000;gradientColor=none;" vertex="1" parent="1">
          <mxGeometry x="257" y="428" width="3" height="3" as="geometry" />
        </mxCell>
        <mxCell id="vvrQFcxBnv0l4eagiuI2-23" value="message" style="endArrow=classic;html=1;rounded=0;fontFamily=Helvetica;fontSize=12;fontColor=default;exitX=0.986;exitY=0.062;exitDx=0;exitDy=0;exitPerimeter=0;" edge="1" parent="1" source="vvrQFcxBnv0l4eagiuI2-29">
          <mxGeometry x="-0.3484" y="5" width="50" height="50" relative="1" as="geometry">
            <mxPoint x="86" y="306" as="sourcePoint" />
            <mxPoint x="259" y="306" as="targetPoint" />
            <mxPoint as="offset" />
          </mxGeometry>
        </mxCell>
        <mxCell id="vvrQFcxBnv0l4eagiuI2-24" value="" style="endArrow=none;html=1;rounded=0;fontFamily=Helvetica;fontSize=12;fontColor=default;" edge="1" parent="1">
          <mxGeometry width="50" height="50" relative="1" as="geometry">
            <mxPoint x="203" y="312.5" as="sourcePoint" />
            <mxPoint x="218" y="298.5" as="targetPoint" />
          </mxGeometry>
        </mxCell>
        <mxCell id="vvrQFcxBnv0l4eagiuI2-25" value="key" style="endArrow=classic;html=1;rounded=0;fontFamily=Helvetica;fontSize=12;fontColor=default;exitX=0.989;exitY=0.195;exitDx=0;exitDy=0;exitPerimeter=0;" edge="1" parent="1">
          <mxGeometry x="-0.4951" width="50" height="50" relative="1" as="geometry">
            <mxPoint x="81.08600000000001" y="318.57000000000005" as="sourcePoint" />
            <mxPoint x="259" y="319" as="targetPoint" />
            <mxPoint as="offset" />
          </mxGeometry>
        </mxCell>
        <mxCell id="vvrQFcxBnv0l4eagiuI2-26" value="" style="endArrow=none;html=1;rounded=0;fontFamily=Helvetica;fontSize=12;fontColor=default;" edge="1" parent="1">
          <mxGeometry width="50" height="50" relative="1" as="geometry">
            <mxPoint x="203" y="325.5" as="sourcePoint" />
            <mxPoint x="218" y="311.5" as="targetPoint" />
          </mxGeometry>
        </mxCell>
        <mxCell id="vvrQFcxBnv0l4eagiuI2-27" value="modulus" style="endArrow=classic;html=1;rounded=0;fontFamily=Helvetica;fontSize=12;fontColor=default;exitX=1;exitY=0.216;exitDx=0;exitDy=0;exitPerimeter=0;" edge="1" parent="1" source="vvrQFcxBnv0l4eagiuI2-29">
          <mxGeometry x="-0.3429" y="-3" width="50" height="50" relative="1" as="geometry">
            <mxPoint x="126" y="333" as="sourcePoint" />
            <mxPoint x="259" y="333" as="targetPoint" />
            <mxPoint as="offset" />
          </mxGeometry>
        </mxCell>
        <mxCell id="vvrQFcxBnv0l4eagiuI2-28" value="" style="endArrow=none;html=1;rounded=0;fontFamily=Helvetica;fontSize=12;fontColor=default;" edge="1" parent="1">
          <mxGeometry width="50" height="50" relative="1" as="geometry">
            <mxPoint x="203" y="339.5" as="sourcePoint" />
            <mxPoint x="218" y="325.5" as="targetPoint" />
          </mxGeometry>
        </mxCell>
        <mxCell id="vvrQFcxBnv0l4eagiuI2-33" value="key" style="edgeStyle=orthogonalEdgeStyle;rounded=0;orthogonalLoop=1;jettySize=auto;html=1;exitX=0;exitY=0.25;exitDx=0;exitDy=0;fontFamily=Helvetica;fontSize=12;fontColor=default;endArrow=none;endFill=0;startArrow=classic;startFill=1;" edge="1" parent="1">
          <mxGeometry relative="1" as="geometry">
            <mxPoint x="-91" y="319.7142857142858" as="targetPoint" />
            <mxPoint y="319.5" as="sourcePoint" />
          </mxGeometry>
        </mxCell>
        <mxCell id="vvrQFcxBnv0l4eagiuI2-29" value="FSM" style="rounded=0;whiteSpace=wrap;html=1;" vertex="1" parent="1">
          <mxGeometry y="294" width="84" height="182" as="geometry" />
        </mxCell>
        <mxCell id="vvrQFcxBnv0l4eagiuI2-31" style="edgeStyle=orthogonalEdgeStyle;rounded=0;orthogonalLoop=1;jettySize=auto;html=1;exitX=0;exitY=0.5;exitDx=0;exitDy=0;entryX=0.988;entryY=0.373;entryDx=0;entryDy=0;entryPerimeter=0;fontFamily=Helvetica;fontSize=12;fontColor=default;startArrow=classic;startFill=1;" edge="1" parent="1" source="vvrQFcxBnv0l4eagiuI2-13" target="vvrQFcxBnv0l4eagiuI2-29">
          <mxGeometry relative="1" as="geometry" />
        </mxCell>
        <mxCell id="vvrQFcxBnv0l4eagiuI2-32" style="edgeStyle=orthogonalEdgeStyle;rounded=0;orthogonalLoop=1;jettySize=auto;html=1;exitX=0;exitY=0.5;exitDx=0;exitDy=0;entryX=1;entryY=0.567;entryDx=0;entryDy=0;entryPerimeter=0;fontFamily=Helvetica;fontSize=12;fontColor=default;startArrow=classic;startFill=1;endArrow=none;endFill=0;" edge="1" parent="1" source="vvrQFcxBnv0l4eagiuI2-14" target="vvrQFcxBnv0l4eagiuI2-29">
          <mxGeometry relative="1" as="geometry" />
        </mxCell>
        <mxCell id="vvrQFcxBnv0l4eagiuI2-34" value="message" style="edgeStyle=orthogonalEdgeStyle;rounded=0;orthogonalLoop=1;jettySize=auto;html=1;exitX=0;exitY=0.25;exitDx=0;exitDy=0;fontFamily=Helvetica;fontSize=12;fontColor=default;endArrow=none;endFill=0;startArrow=classic;startFill=1;" edge="1" parent="1">
          <mxGeometry relative="1" as="geometry">
            <mxPoint x="-91" y="305.7142857142858" as="targetPoint" />
            <mxPoint y="306" as="sourcePoint" />
          </mxGeometry>
        </mxCell>
        <mxCell id="vvrQFcxBnv0l4eagiuI2-35" value="modulo&lt;span style=&quot;color: rgba(0, 0, 0, 0); font-family: monospace; font-size: 0px; text-align: start; background-color: rgb(251, 251, 251);&quot;&gt;%3CmxGraphModel%3E%3Croot%3E%3CmxCell%20id%3D%220%22%2F%3E%3CmxCell%20id%3D%221%22%20parent%3D%220%22%2F%3E%3CmxCell%20id%3D%222%22%20value%3D%22message%22%20style%3D%22edgeStyle%3DorthogonalEdgeStyle%3Brounded%3D0%3BorthogonalLoop%3D1%3BjettySize%3Dauto%3Bhtml%3D1%3BexitX%3D0%3BexitY%3D0.25%3BexitDx%3D0%3BexitDy%3D0%3BfontFamily%3DHelvetica%3BfontSize%3D12%3BfontColor%3Ddefault%3BendArrow%3Dnone%3BendFill%3D0%3BstartArrow%3Dclassic%3BstartFill%3D1%3B%22%20edge%3D%221%22%20parent%3D%221%22%3E%3CmxGeometry%20relative%3D%221%22%20as%3D%22geometry%22%3E%3CmxPoint%20x%3D%22-91%22%20y%3D%22325.7142857142858%22%20as%3D%22targetPoint%22%2F%3E%3CmxPoint%20y%3D%22326%22%20as%3D%22sourcePoint%22%2F%3E%3C%2FmxGeometry%3E%3C%2FmxCell%3E%3C%2Froot%3E%3C%2FmxGraphModel%3E&lt;/span&gt;" style="edgeStyle=orthogonalEdgeStyle;rounded=0;orthogonalLoop=1;jettySize=auto;html=1;exitX=0;exitY=0.25;exitDx=0;exitDy=0;fontFamily=Helvetica;fontSize=12;fontColor=default;endArrow=none;endFill=0;startArrow=classic;startFill=1;" edge="1" parent="1">
          <mxGeometry relative="1" as="geometry">
            <mxPoint x="-91" y="333.7142857142858" as="targetPoint" />
            <mxPoint y="334" as="sourcePoint" />
          </mxGeometry>
        </mxCell>
        <mxCell id="vvrQFcxBnv0l4eagiuI2-36" value="valid_in" style="edgeStyle=orthogonalEdgeStyle;rounded=0;orthogonalLoop=1;jettySize=auto;html=1;exitX=0;exitY=0.25;exitDx=0;exitDy=0;fontFamily=Helvetica;fontSize=12;fontColor=default;endArrow=none;endFill=0;startArrow=classic;startFill=1;" edge="1" parent="1">
          <mxGeometry x="-0.0143" relative="1" as="geometry">
            <mxPoint x="-91" y="351.5942857142858" as="targetPoint" />
            <mxPoint y="351.88" as="sourcePoint" />
            <mxPoint as="offset" />
          </mxGeometry>
        </mxCell>
        <mxCell id="vvrQFcxBnv0l4eagiuI2-37" value="ready in" style="edgeStyle=orthogonalEdgeStyle;rounded=0;orthogonalLoop=1;jettySize=auto;html=1;exitX=0;exitY=0.25;exitDx=0;exitDy=0;fontFamily=Helvetica;fontSize=12;fontColor=default;endArrow=classic;endFill=1;startArrow=none;startFill=0;" edge="1" parent="1">
          <mxGeometry relative="1" as="geometry">
            <mxPoint x="-91" y="364.0042857142858" as="targetPoint" />
            <mxPoint y="364.29" as="sourcePoint" />
          </mxGeometry>
        </mxCell>
        <mxCell id="vvrQFcxBnv0l4eagiuI2-38" style="edgeStyle=orthogonalEdgeStyle;rounded=0;orthogonalLoop=1;jettySize=auto;html=1;exitX=0;exitY=0.5;exitDx=0;exitDy=0;entryX=0.975;entryY=0.74;entryDx=0;entryDy=0;entryPerimeter=0;fontFamily=Helvetica;fontSize=12;fontColor=default;" edge="1" parent="1" source="vvrQFcxBnv0l4eagiuI2-17" target="vvrQFcxBnv0l4eagiuI2-29">
          <mxGeometry relative="1" as="geometry" />
        </mxCell>
        <mxCell id="vvrQFcxBnv0l4eagiuI2-40" style="edgeStyle=orthogonalEdgeStyle;rounded=0;orthogonalLoop=1;jettySize=auto;html=1;exitX=0;exitY=0.5;exitDx=0;exitDy=0;entryX=0.992;entryY=0.88;entryDx=0;entryDy=0;entryPerimeter=0;fontFamily=Helvetica;fontSize=12;fontColor=default;" edge="1" parent="1" source="vvrQFcxBnv0l4eagiuI2-16" target="vvrQFcxBnv0l4eagiuI2-29">
          <mxGeometry relative="1" as="geometry" />
        </mxCell>
        <mxCell id="vvrQFcxBnv0l4eagiuI2-41" value="clk" style="edgeStyle=orthogonalEdgeStyle;rounded=0;orthogonalLoop=1;jettySize=auto;html=1;exitX=0;exitY=0.25;exitDx=0;exitDy=0;fontFamily=Helvetica;fontSize=12;fontColor=default;endArrow=none;endFill=0;startArrow=classic;startFill=1;" edge="1" parent="1">
          <mxGeometry x="-0.0143" relative="1" as="geometry">
            <mxPoint x="-91" y="396.00428571428574" as="targetPoint" />
            <mxPoint y="396.28999999999996" as="sourcePoint" />
            <mxPoint as="offset" />
          </mxGeometry>
        </mxCell>
        <mxCell id="vvrQFcxBnv0l4eagiuI2-42" value="reset_n" style="edgeStyle=orthogonalEdgeStyle;rounded=0;orthogonalLoop=1;jettySize=auto;html=1;exitX=0;exitY=0.25;exitDx=0;exitDy=0;fontFamily=Helvetica;fontSize=12;fontColor=default;endArrow=none;endFill=0;startArrow=classic;startFill=1;" edge="1" parent="1">
          <mxGeometry x="-0.0143" relative="1" as="geometry">
            <mxPoint x="-91" y="413.00428571428574" as="targetPoint" />
            <mxPoint y="413.28999999999996" as="sourcePoint" />
            <mxPoint as="offset" />
          </mxGeometry>
        </mxCell>
        <mxCell id="vvrQFcxBnv0l4eagiuI2-43" value="msgin_last" style="edgeStyle=orthogonalEdgeStyle;rounded=0;orthogonalLoop=1;jettySize=auto;html=1;exitX=0;exitY=0.25;exitDx=0;exitDy=0;fontFamily=Helvetica;fontSize=12;fontColor=default;endArrow=none;endFill=0;startArrow=classic;startFill=1;" edge="1" parent="1">
          <mxGeometry x="-0.0143" relative="1" as="geometry">
            <mxPoint x="-91" y="428.00428571428574" as="targetPoint" />
            <mxPoint y="428.28999999999996" as="sourcePoint" />
            <mxPoint as="offset" />
          </mxGeometry>
        </mxCell>
        <mxCell id="vvrQFcxBnv0l4eagiuI2-44" value="msgout_last" style="edgeStyle=orthogonalEdgeStyle;rounded=0;orthogonalLoop=1;jettySize=auto;html=1;exitX=0;exitY=0.25;exitDx=0;exitDy=0;fontFamily=Helvetica;fontSize=12;fontColor=default;endArrow=classic;endFill=1;startArrow=none;startFill=0;" edge="1" parent="1">
          <mxGeometry relative="1" as="geometry">
            <mxPoint x="-91" y="448.0042857142858" as="targetPoint" />
            <mxPoint y="448.29" as="sourcePoint" />
          </mxGeometry>
        </mxCell>
        <mxCell id="vvrQFcxBnv0l4eagiuI2-45" value="result" style="edgeStyle=orthogonalEdgeStyle;rounded=0;orthogonalLoop=1;jettySize=auto;html=1;exitX=0;exitY=0.25;exitDx=0;exitDy=0;fontFamily=Helvetica;fontSize=12;fontColor=default;endArrow=classic;endFill=1;startArrow=none;startFill=0;" edge="1" parent="1">
          <mxGeometry relative="1" as="geometry">
            <mxPoint x="-91" y="462.0042857142858" as="targetPoint" />
            <mxPoint y="462.29" as="sourcePoint" />
          </mxGeometry>
        </mxCell>
        <mxCell id="vvrQFcxBnv0l4eagiuI2-46" value="" style="endArrow=none;html=1;rounded=0;fontFamily=Helvetica;fontSize=12;fontColor=default;" edge="1" parent="1">
          <mxGeometry width="50" height="50" relative="1" as="geometry">
            <mxPoint x="-91" y="312.5" as="sourcePoint" />
            <mxPoint x="-76" y="298.5" as="targetPoint" />
          </mxGeometry>
        </mxCell>
        <mxCell id="vvrQFcxBnv0l4eagiuI2-47" value="" style="endArrow=none;html=1;rounded=0;fontFamily=Helvetica;fontSize=12;fontColor=default;" edge="1" parent="1">
          <mxGeometry width="50" height="50" relative="1" as="geometry">
            <mxPoint x="-91" y="325.5" as="sourcePoint" />
            <mxPoint x="-76" y="311.5" as="targetPoint" />
          </mxGeometry>
        </mxCell>
        <mxCell id="vvrQFcxBnv0l4eagiuI2-48" value="" style="endArrow=none;html=1;rounded=0;fontFamily=Helvetica;fontSize=12;fontColor=default;" edge="1" parent="1">
          <mxGeometry width="50" height="50" relative="1" as="geometry">
            <mxPoint x="-91" y="339.5" as="sourcePoint" />
            <mxPoint x="-76" y="325.5" as="targetPoint" />
          </mxGeometry>
        </mxCell>
        <mxCell id="vvrQFcxBnv0l4eagiuI2-49" value="" style="endArrow=none;html=1;rounded=0;fontFamily=Helvetica;fontSize=12;fontColor=default;" edge="1" parent="1">
          <mxGeometry width="50" height="50" relative="1" as="geometry">
            <mxPoint x="-77" y="469" as="sourcePoint" />
            <mxPoint x="-62" y="455" as="targetPoint" />
          </mxGeometry>
        </mxCell>
      </root>
    </mxGraphModel>
  </diagram>
</mxfile>
